<?xml version="1.0" encoding="iso-8859-1"?>
<!-- Generator: Adobe Illustrator 19.0.0, SVG Export Plug-In . SVG Version: 6.00 Build 0)  -->
<svg version="1.1" id="Capa_1" xmlns="http://www.w3.org/2000/svg" xmlns:xlink="http://www.w3.org/1999/xlink" x="0px" y="0px"
	 viewBox="0 0 511.145 511.145" style="enable-background:new 0 0 511.145 511.145;" xml:space="preserve">
<g>
	<path style="fill:#66C6B9;" d="M94.933,459.717L94.933,459.717c-6.4-7.467-20.267-11.733-22.4-16s3.2-37.333,4.267-53.333
		s2.133-83.2-2.133-87.467l-8.533-4.267c0,0-9.6-3.2-20.267,16c-11.733,19.2-10.667,35.2-14.933,48s-10.667,28.8-13.867,39.467
		S0,447.983,0,456.517c0,1.067,0,2.133,1.067,3.2H94.933z"/>
	<path style="fill:#66C6B9;" d="M261.333,459.717c2.133-36.267,3.2-122.667,3.2-122.667l-54.4-24.533c0,0,0,0-2.133,14.933
		c-1.067,11.733-16,89.6-23.467,131.2h76.8V459.717z"/>
	<path style="fill:#66C6B9;" d="M178.133,459.717H195.2c4.267-8.533,7.467-18.133,10.667-26.667c16-44.8,16-46.933,16-66.133
		c0-19.2-13.867-58.667-13.867-58.667l-9.6-4.267c0,0,5.333,58.667-4.267,99.2C190.933,418.117,184.533,438.383,178.133,459.717z"/>
</g>
<path style="fill:#4ABAA5;" d="M72.533,387.183c-3.2,14.933-5.333,44.8-7.467,72.533h105.6c-5.333-44.8-19.2-163.2-39.467-177.067
	l-65.067,16C66.133,298.65,78.933,356.25,72.533,387.183z"/>
<path style="fill:#F3705A;" d="M238.933,243.183c-5.333-14.933-13.867-24.533-22.4-24.533c-16,0-29.867,32-29.867,71.467
	s12.8,71.467,29.867,71.467c8.533,0,17.067-9.6,22.4-24.533V243.183z"/>
<path style="fill:#FFD15C;" d="M169.6,459.717h19.2c12.8-32,24.533-99.2,10.667-113.067c-2.133-2.133-6.4-52.267-6.4-52.267
	s13.867,6.4,23.467-13.867c7.467-16,19.2-36.267,19.2-36.267c10.667-56.533-35.2-59.733-35.2-59.733l-46.933,32l-14.933,64
	l7.467,83.2L169.6,459.717z"/>
<path style="fill:#66C6B9;" d="M149.333,385.05c2.133,5.333,8.533,42.667,13.867,74.667h14.933c0-20.267-2.133-49.067-8.533-76.8
	c-7.467-39.467-27.733-96-27.733-96L108.8,307.183C132.267,329.583,145.067,376.517,149.333,385.05z"/>
<path style="fill:#F3705A;" d="M194.133,294.383L194.133,294.383L194.133,294.383z"/>
<path style="fill:#F7B64C;" d="M198.4,337.05c-2.133-14.933-4.267-42.667-4.267-42.667s-25.6-5.333-40.533-32
	C153.6,262.383,164.267,315.717,198.4,337.05z"/>
<path style="fill:#4ABAA5;" d="M261.333,459.717c2.133-36.267,3.2-122.667,3.2-122.667l-54.4-24.533c0,0,0,0-2.133,14.933
	c-1.067,11.733-16,89.6-23.467,131.2h76.8V459.717z"/>
<path style="fill:#66C6B9;" d="M178.133,459.717H195.2c4.267-8.533,7.467-18.133,10.667-26.667c16-44.8,16-46.933,16-66.133
	c0-19.2-13.867-58.667-13.867-58.667l-9.6-4.267c0,0,5.333,58.667-4.267,99.2C190.933,418.117,184.533,438.383,178.133,459.717z"/>
<g>
	<path style="fill:#F3705A;" d="M134.4,178.117c0,0-13.867,10.667-21.333,38.4c-7.467,27.733-10.667,67.2-22.4,94.933
		c-11.733,27.733-16,33.067-16,33.067s19.2,2.133,21.333,2.133s41.6,6.4,41.6-19.2s-16-62.933-7.467-88.533
		C138.667,213.317,134.4,178.117,134.4,178.117z"/>
	<path style="fill:#F3705A;" d="M163.2,351.983c0,0,0-1.067,1.067-2.133C164.267,350.917,164.267,351.983,163.2,351.983z"/>
	<path style="fill:#F3705A;" d="M248.533,331.717c-3.2,21.333-19.2,39.467-20.267,40.533c3.2-18.133,3.2-35.2-1.067-49.067
		c-3.2-11.733-4.267-24.533-3.2-38.4l0,0c1.067-9.6,13.867-52.267,5.333-65.067C220.8,205.85,198.4,199.45,198.4,199.45
		c-5.333,6.4-22.4,16-30.933,23.467c-8.533,6.4-17.067,18.133,2.133,76.8c20.267,57.6,0,73.6,0,73.6
		c16-46.933-11.733-66.133-11.733-66.133c12.8,16,8.533,36.267,6.4,43.733c1.067-6.4,1.067-16-4.267-28.8
		c-5.333-14.933-18.133-19.2-18.133-19.2s-1.067,3.2,2.133,37.333c3.2,34.133-17.067,44.8-18.133,44.8c0,0,1.067-1.067,6.4-12.8
		c4.267-8.533,1.067-32-2.133-46.933c-4.267-20.267-7.467-39.467-9.6-59.733c-2.133-23.467-3.2-44.8-1.067-62.933
		c1.067-12.8,5.333-24.533,12.8-34.133c6.4-8.533,14.933-16,26.667-18.133c20.267-4.267,36.267-4.267,56.533,12.8
		c20.267,16,30.933,52.267,30.933,66.133c0,12.8-2.133,40.533-2.133,40.533s0,1.067,1.067,9.6
		C246.4,286.917,251.733,310.383,248.533,331.717z"/>
	<path style="fill:#F3705A;" d="M214.4,358.383L214.4,358.383L214.4,358.383z"/>
	<path style="fill:#F3705A;" d="M227.2,303.983L227.2,303.983c-1.067,1.067-1.067,2.133-1.067,2.133
		c-1.067,1.067-2.133,4.267-3.2,6.4c-1.067,3.2-2.133,6.4-2.133,10.667c-1.067,4.267-1.067,8.533-1.067,12.8s0,8.533,0,12.8
		c0,4.267-1.067,8.533-3.2,11.733c-1.067,1.067-1.067,3.2-2.133,4.267c-1.067,1.067-1.067,2.133-2.133,3.2
		c-1.067,1.067-1.067,1.067-2.133,1.067l-1.067,1.067c0,0,0,0,0-1.067c0,0,1.067-1.067,1.067-2.133
		c1.067-1.067,1.067-2.133,2.133-3.2c1.067-1.067,1.067-2.133,2.133-4.267c1.067-3.2,1.067-6.4,1.067-10.667
		s-1.067-8.533-1.067-12.8c0-4.267-1.067-8.533-1.067-12.8s1.067-8.533,1.067-11.733c1.067-3.2,2.133-6.4,2.133-8.533
		c0-1.067,1.067-2.133,1.067-2.133v-1.067L227.2,303.983z"/>
	<path style="fill:#F3705A;" d="M194.133,294.383c-9.6,13.867-12.8,32-9.6,49.067c2.133,12.8,8.533,24.533,11.733,37.333
		c3.2,13.867,2.133,28.8-3.2,42.667c11.733-12.8,24.533-26.667,34.133-41.6s17.067-32,18.133-50.133
		c1.067-17.067-3.2-33.067-8.533-49.067C221.867,293.317,206.933,300.783,194.133,294.383z"/>
</g>
<path style="fill:#344A5E;" d="M270.933,459.717H313.6c6.4-16,12.8-42.667,10.667-69.333c-5.333-42.667-16-130.133-12.8-139.733
	c3.2-9.6,21.333-51.2,21.333-51.2s-36.267,14.933-41.6,17.067c-5.333,3.2-5.333,2.133-8.533,7.467
	c-3.2,5.333-10.667,41.6-10.667,51.2c0,9.6,7.467,90.667,7.467,90.667L270.933,459.717z"/>
<path style="fill:#FFD15C;" d="M418.133,203.717l-67.2,46.933l-8.533-24.533c0,0,1.067-20.267,0-25.6
	c0,0-20.267-26.667-30.933-62.933C300.8,100.25,300.8,100.25,300.8,100.25s-8.533-20.267,27.733-28.8
	c35.2-7.467,45.867-7.467,52.267-1.067l21.333,67.2c0,0-1.067,24.533-2.133,27.733c0,0,1.067,14.933,9.6,26.667
	C418.133,203.717,418.133,203.717,418.133,203.717z"/>
<path style="fill:#415A6B;" d="M311.467,138.65c0,0-2.133-13.867-4.267-23.467s-2.133-18.133,2.133-20.267
	c4.267-2.133,28.8-2.133,48-11.733c19.2-9.6,19.2,5.333,19.2,10.667c0,6.4,0,12.8,5.333,18.133c5.333,5.333,8.533,11.733,9.6,17.067
	c1.067,5.333,1.067,5.333,1.067,5.333h3.2c0,0,2.133-12.8,2.133-18.133c0-6.4,7.467-16,7.467-16s2.133-52.267-46.933-54.4
	c0,0-13.867-10.667-41.6,8.533s-22.4,42.667-21.333,50.133C297.6,113.05,311.467,138.65,311.467,138.65z"/>
<path style="fill:#FFD15C;" d="M412.8,123.717c-2.133,11.733-7.467,20.267-11.733,19.2c-4.267-1.067-7.467-10.667-5.333-22.4
	c2.133-11.733,7.467-20.267,11.733-19.2C411.733,101.317,413.867,111.983,412.8,123.717z"/>
<path style="fill:#F7B64C;" d="M385.067,226.117c20.267-26.667,17.067-49.067,16-56.533l0,0c0-2.133-1.067-4.267-1.067-4.267l0,0
	c-1.067,18.133-19.2,42.667-34.133,45.867c-14.933,3.2-23.467-9.6-23.467-9.6c1.067,5.333,0,25.6,0,25.6l8.533,24.533L384,228.25
	C384,227.183,384,227.183,385.067,226.117z"/>
<path style="fill:#CED6E0;" d="M345.6,223.983l5.333,27.733l18.133-28.8l25.6,12.8L345.6,433.05l-39.467-30.933l17.067-185.6
	C323.2,216.517,333.867,197.317,345.6,223.983z"/>
<path style="fill:#344A5E;" d="M461.867,459.717l-20.267-115.2c0,0,0-2.133,9.6-39.467s37.333-72.533,37.333-72.533
	s-22.4-10.667-39.467-20.267c-17.067-9.6-22.4-9.6-22.4-9.6l-5.333,3.2c0,0-82.133,157.867-94.933,209.067
	c-3.2,12.8-4.267,28.8-3.2,44.8L461.867,459.717L461.867,459.717z"/>
<path style="fill:#415A6B;" d="M337.067,201.583c0,0-10.667,23.467-13.867,51.2c-4.267,27.733,0,138.667,0,138.667
	s-18.133-82.133-19.2-102.4s4.267-58.667,4.267-58.667l12.8-8.533l-4.267-3.2l21.333-23.467L337.067,201.583z"/>
<path style="fill:#F3F3F3;" d="M403.2,178.117c0,0-20.267,34.133-34.133,44.8c0,0,11.733,32,12.8,33.067
	c0,1.067,33.067-65.067,33.067-65.067L403.2,178.117z"/>
<g>
	<path style="fill:#415A6B;" d="M406.4,182.383c0,0-12.8,38.4-19.2,52.267c-7.467,13.867-34.133,76.8-48,129.067
		c-12.8,52.267-12.8,52.267-12.8,52.267s64-134.4,87.467-167.467l-8.533-9.6l16-5.333c0,0,0-13.867,3.2-21.333
		c3.2-7.467,2.133-9.6,2.133-9.6s-3.2-5.333-9.6-9.6C410.667,187.717,410.667,183.45,406.4,182.383z"/>
	<path style="fill:#415A6B;" d="M468.267,459.717c8.533,0,16-2.133,22.4-7.467l0,0c8.533-6.4,7.467-10.667,8.533-21.333
		c1.067-9.6,10.667-73.6,11.733-96s-2.133-62.933-4.267-84.267c-3.2-21.333-18.133-19.2-18.133-19.2s-28.8,34.133-37.333,72.533
		c-2.133,7.467-3.2,13.867-4.267,19.2l0,0c0,1.067,3.2,35.2,2.133,61.867c-1.067,14.933-2.133,26.667-7.467,29.867
		c-13.867,7.467-85.333,13.867-98.133,37.333c-1.067,2.133-2.133,5.333-3.2,7.467H468.267z"/>
</g>
<path style="fill:#F3F3F3;" d="M342.4,201.583c3.2,11.733,5.333,23.467,6.4,36.267c0,0-8.533-13.867-12.8-19.2
	c-4.267-4.267-6.4-6.4-6.4-6.4l6.4-19.2C337.067,193.05,340.267,199.45,342.4,201.583z"/>
<path style="fill:#E8EAE9;" d="M453.333,462.917l-208,5.333c-4.267,0-7.467-3.2-7.467-7.467L240,344.517
	c0-4.267,3.2-7.467,7.467-7.467H473.6c4.267,0,7.467,4.267,7.467,8.533L460.8,456.517
	C459.733,460.783,456.533,462.917,453.333,462.917z"/>
<ellipse transform="matrix(-0.0801 -0.9968 0.9968 -0.0801 -12.5935 792.5539)" style="fill:#ADB3BA;" cx="359.429" cy="402.088" rx="12.8" ry="21.334"/>
<g>
</g>
<g>
</g>
<g>
</g>
<g>
</g>
<g>
</g>
<g>
</g>
<g>
</g>
<g>
</g>
<g>
</g>
<g>
</g>
<g>
</g>
<g>
</g>
<g>
</g>
<g>
</g>
<g>
</g>
</svg>
